<mxfile host="app.diagrams.net" modified="2022-08-13T19:25:54.382Z" agent="5.0 (Macintosh; Intel Mac OS X 10_15_6) AppleWebKit/605.1.15 (KHTML, like Gecko) Version/15.6 Safari/605.1.15" etag="QnHRGITGekEV31URHTdF" version="20.2.3" type="github">
  <diagram id="uq6N5SFmx07jM68_V_0n" name="Page-1">
    <mxGraphModel dx="868" dy="742" grid="1" gridSize="10" guides="1" tooltips="1" connect="1" arrows="1" fold="1" page="1" pageScale="1" pageWidth="827" pageHeight="1169" math="0" shadow="0">
      <root>
        <mxCell id="0" />
        <mxCell id="1" parent="0" />
        <mxCell id="SsSQPSKlP_C7Qdj5PyWz-15" style="edgeStyle=orthogonalEdgeStyle;rounded=0;orthogonalLoop=1;jettySize=auto;html=1;entryX=0.5;entryY=0;entryDx=0;entryDy=0;" edge="1" parent="1" source="SsSQPSKlP_C7Qdj5PyWz-2" target="SsSQPSKlP_C7Qdj5PyWz-7">
          <mxGeometry relative="1" as="geometry" />
        </mxCell>
        <mxCell id="SsSQPSKlP_C7Qdj5PyWz-18" style="edgeStyle=orthogonalEdgeStyle;rounded=0;orthogonalLoop=1;jettySize=auto;html=1;entryX=0.5;entryY=0;entryDx=0;entryDy=0;" edge="1" parent="1" source="SsSQPSKlP_C7Qdj5PyWz-2" target="SsSQPSKlP_C7Qdj5PyWz-9">
          <mxGeometry relative="1" as="geometry" />
        </mxCell>
        <mxCell id="SsSQPSKlP_C7Qdj5PyWz-2" value="Question&amp;nbsp;&lt;br&gt;Generator&amp;nbsp;" style="whiteSpace=wrap;html=1;aspect=fixed;fillColor=#e1d5e7;strokeColor=#9673a6;" vertex="1" parent="1">
          <mxGeometry x="350" y="390" width="80" height="80" as="geometry" />
        </mxCell>
        <mxCell id="SsSQPSKlP_C7Qdj5PyWz-12" style="edgeStyle=orthogonalEdgeStyle;rounded=0;orthogonalLoop=1;jettySize=auto;html=1;entryX=0.5;entryY=0;entryDx=0;entryDy=0;" edge="1" parent="1" source="SsSQPSKlP_C7Qdj5PyWz-3" target="SsSQPSKlP_C7Qdj5PyWz-5">
          <mxGeometry relative="1" as="geometry" />
        </mxCell>
        <mxCell id="SsSQPSKlP_C7Qdj5PyWz-3" value="Instructions&amp;nbsp;" style="shape=parallelogram;perimeter=parallelogramPerimeter;whiteSpace=wrap;html=1;fixedSize=1;fillColor=#d5e8d4;strokeColor=#82b366;" vertex="1" parent="1">
          <mxGeometry x="330" y="120" width="120" height="60" as="geometry" />
        </mxCell>
        <mxCell id="SsSQPSKlP_C7Qdj5PyWz-11" value="" style="edgeStyle=orthogonalEdgeStyle;rounded=0;orthogonalLoop=1;jettySize=auto;html=1;" edge="1" parent="1" source="SsSQPSKlP_C7Qdj5PyWz-4" target="SsSQPSKlP_C7Qdj5PyWz-3">
          <mxGeometry relative="1" as="geometry" />
        </mxCell>
        <mxCell id="SsSQPSKlP_C7Qdj5PyWz-4" value="Start" style="ellipse;whiteSpace=wrap;html=1;fillColor=#dae8fc;strokeColor=#6c8ebf;" vertex="1" parent="1">
          <mxGeometry x="330" y="10" width="120" height="80" as="geometry" />
        </mxCell>
        <mxCell id="SsSQPSKlP_C7Qdj5PyWz-13" style="edgeStyle=orthogonalEdgeStyle;rounded=0;orthogonalLoop=1;jettySize=auto;html=1;entryX=0.5;entryY=0;entryDx=0;entryDy=0;" edge="1" parent="1" source="SsSQPSKlP_C7Qdj5PyWz-5" target="SsSQPSKlP_C7Qdj5PyWz-6">
          <mxGeometry relative="1" as="geometry" />
        </mxCell>
        <mxCell id="SsSQPSKlP_C7Qdj5PyWz-5" value="Question&lt;br&gt;&amp;nbsp;Description&amp;nbsp;" style="shape=parallelogram;perimeter=parallelogramPerimeter;whiteSpace=wrap;html=1;fixedSize=1;fillColor=#fff2cc;strokeColor=#d6b656;" vertex="1" parent="1">
          <mxGeometry x="330" y="210" width="120" height="60" as="geometry" />
        </mxCell>
        <mxCell id="SsSQPSKlP_C7Qdj5PyWz-14" style="edgeStyle=orthogonalEdgeStyle;rounded=0;orthogonalLoop=1;jettySize=auto;html=1;entryX=0.5;entryY=0;entryDx=0;entryDy=0;" edge="1" parent="1" source="SsSQPSKlP_C7Qdj5PyWz-6" target="SsSQPSKlP_C7Qdj5PyWz-2">
          <mxGeometry relative="1" as="geometry" />
        </mxCell>
        <mxCell id="SsSQPSKlP_C7Qdj5PyWz-6" value="Number of&lt;br&gt;Question&amp;nbsp;" style="shape=parallelogram;perimeter=parallelogramPerimeter;whiteSpace=wrap;html=1;fixedSize=1;fillColor=#fff2cc;strokeColor=#d6b656;" vertex="1" parent="1">
          <mxGeometry x="330" y="300" width="120" height="60" as="geometry" />
        </mxCell>
        <mxCell id="SsSQPSKlP_C7Qdj5PyWz-16" style="edgeStyle=orthogonalEdgeStyle;rounded=0;orthogonalLoop=1;jettySize=auto;html=1;entryX=0.5;entryY=1;entryDx=0;entryDy=0;" edge="1" parent="1" source="SsSQPSKlP_C7Qdj5PyWz-7" target="SsSQPSKlP_C7Qdj5PyWz-8">
          <mxGeometry relative="1" as="geometry">
            <Array as="points">
              <mxPoint x="200" y="520" />
              <mxPoint x="620" y="520" />
            </Array>
          </mxGeometry>
        </mxCell>
        <mxCell id="SsSQPSKlP_C7Qdj5PyWz-7" value="Show Questions" style="shape=parallelogram;perimeter=parallelogramPerimeter;whiteSpace=wrap;html=1;fixedSize=1;fillColor=#d5e8d4;strokeColor=#82b366;" vertex="1" parent="1">
          <mxGeometry x="140" y="450" width="120" height="60" as="geometry" />
        </mxCell>
        <mxCell id="SsSQPSKlP_C7Qdj5PyWz-17" style="edgeStyle=orthogonalEdgeStyle;rounded=0;orthogonalLoop=1;jettySize=auto;html=1;entryX=1;entryY=0.5;entryDx=0;entryDy=0;" edge="1" parent="1" source="SsSQPSKlP_C7Qdj5PyWz-8" target="SsSQPSKlP_C7Qdj5PyWz-2">
          <mxGeometry relative="1" as="geometry">
            <Array as="points">
              <mxPoint x="620" y="430" />
            </Array>
          </mxGeometry>
        </mxCell>
        <mxCell id="SsSQPSKlP_C7Qdj5PyWz-8" value="Answer&amp;nbsp;" style="shape=parallelogram;perimeter=parallelogramPerimeter;whiteSpace=wrap;html=1;fixedSize=1;fillColor=#fff2cc;strokeColor=#d6b656;" vertex="1" parent="1">
          <mxGeometry x="560" y="460" width="120" height="40" as="geometry" />
        </mxCell>
        <mxCell id="SsSQPSKlP_C7Qdj5PyWz-21" style="edgeStyle=orthogonalEdgeStyle;rounded=0;orthogonalLoop=1;jettySize=auto;html=1;entryX=0.5;entryY=0;entryDx=0;entryDy=0;" edge="1" parent="1" source="SsSQPSKlP_C7Qdj5PyWz-9" target="SsSQPSKlP_C7Qdj5PyWz-10">
          <mxGeometry relative="1" as="geometry" />
        </mxCell>
        <mxCell id="SsSQPSKlP_C7Qdj5PyWz-9" value="Results&amp;nbsp;" style="shape=parallelogram;perimeter=parallelogramPerimeter;whiteSpace=wrap;html=1;fixedSize=1;fillColor=#d5e8d4;strokeColor=#82b366;" vertex="1" parent="1">
          <mxGeometry x="330" y="555" width="120" height="60" as="geometry" />
        </mxCell>
        <mxCell id="SsSQPSKlP_C7Qdj5PyWz-20" style="edgeStyle=orthogonalEdgeStyle;rounded=0;orthogonalLoop=1;jettySize=auto;html=1;entryX=0;entryY=0.5;entryDx=0;entryDy=0;startArrow=none;" edge="1" parent="1" source="SsSQPSKlP_C7Qdj5PyWz-24" target="SsSQPSKlP_C7Qdj5PyWz-19">
          <mxGeometry relative="1" as="geometry" />
        </mxCell>
        <mxCell id="SsSQPSKlP_C7Qdj5PyWz-22" style="edgeStyle=orthogonalEdgeStyle;rounded=0;orthogonalLoop=1;jettySize=auto;html=1;entryX=0;entryY=0.5;entryDx=0;entryDy=0;" edge="1" parent="1" source="SsSQPSKlP_C7Qdj5PyWz-10" target="SsSQPSKlP_C7Qdj5PyWz-5">
          <mxGeometry relative="1" as="geometry">
            <Array as="points">
              <mxPoint x="130" y="690" />
              <mxPoint x="130" y="240" />
            </Array>
          </mxGeometry>
        </mxCell>
        <mxCell id="SsSQPSKlP_C7Qdj5PyWz-30" value="Yes" style="edgeLabel;html=1;align=center;verticalAlign=middle;resizable=0;points=[];" vertex="1" connectable="0" parent="SsSQPSKlP_C7Qdj5PyWz-22">
          <mxGeometry x="-0.7841" y="-3" relative="1" as="geometry">
            <mxPoint as="offset" />
          </mxGeometry>
        </mxCell>
        <mxCell id="SsSQPSKlP_C7Qdj5PyWz-10" value="Dic" style="rhombus;whiteSpace=wrap;html=1;fillColor=#ffe6cc;strokeColor=#d79b00;" vertex="1" parent="1">
          <mxGeometry x="350" y="650" width="80" height="80" as="geometry" />
        </mxCell>
        <mxCell id="SsSQPSKlP_C7Qdj5PyWz-19" value="End" style="ellipse;whiteSpace=wrap;html=1;fillColor=#f8cecc;strokeColor=#b85450;" vertex="1" parent="1">
          <mxGeometry x="550" y="650" width="120" height="80" as="geometry" />
        </mxCell>
        <mxCell id="SsSQPSKlP_C7Qdj5PyWz-24" value="No" style="text;html=1;strokeColor=none;fillColor=none;align=center;verticalAlign=middle;whiteSpace=wrap;rounded=0;" vertex="1" parent="1">
          <mxGeometry x="470" y="640" width="20" height="100" as="geometry" />
        </mxCell>
        <mxCell id="SsSQPSKlP_C7Qdj5PyWz-25" value="" style="edgeStyle=orthogonalEdgeStyle;rounded=0;orthogonalLoop=1;jettySize=auto;html=1;entryX=0;entryY=0.5;entryDx=0;entryDy=0;endArrow=none;" edge="1" parent="1" source="SsSQPSKlP_C7Qdj5PyWz-10" target="SsSQPSKlP_C7Qdj5PyWz-24">
          <mxGeometry relative="1" as="geometry">
            <mxPoint x="430" y="690" as="sourcePoint" />
            <mxPoint x="550" y="690" as="targetPoint" />
          </mxGeometry>
        </mxCell>
      </root>
    </mxGraphModel>
  </diagram>
</mxfile>
